<svg xmlns="http://www.w3.org/2000/svg" aria-hidden="true" style="position:absolute;width:0;height:0;overflow:hidden">
  <defs>
    <symbol id="logo-black" viewBox="0 0 70 32">
      <path d="M25.845 30.311A9.658 9.658 0 0 1 20.359 32a9.88 9.88 0 0 1-6.698-2.573c-.143-.128 0-.298.148-.202a13.256 13.256 0 0 0 11.818.74c.254-.107.461.165.217.346z"/>
      <path d="M26.464 29.602c-.191-.245-1.255-.117-1.737-.059-.143 0-.164-.107-.037-.202.852-.597 2.245-.426 2.404-.224s-.042 1.598-.837 2.275c-.122.101-.238.048-.185-.085.18-.453.577-1.46.392-1.705zm-1.699-4.496v-.586a.142.142 0 0 1 .042-.107.143.143 0 0 1 .107-.042h2.584a.145.145 0 0 1 .149.149v.501c0 .085-.069.192-.196.368l-1.345 1.934c.514-.03 1.026.08 1.483.32a.263.263 0 0 1 .137.224v.623c0 .085-.095.186-.191.133a2.965 2.965 0 0 0-2.742 0c-.09.048-.185-.048-.185-.133v-.575a.7.7 0 0 1 .095-.4l1.567-2.264h-1.355a.137.137 0 0 1-.104-.04c-.014-.013-.025-.03-.032-.047s-.011-.037-.011-.056zm5.136.026c-.582 0-.619.799-.619 1.295s0 1.561.614 1.561.641-.858.641-1.38a3.69 3.69 0 0 0-.122-1.066.49.49 0 0 0-.53-.394l.016-.016zm0-.836c1.17 0 1.806 1.018 1.806 2.302s-.699 2.232-1.806 2.232c-1.107 0-1.779-1.012-1.779-2.275s.635-2.259 1.779-2.259zm-6.413 4.438c-.028.017-.06.027-.093.027s-.065-.009-.093-.027a2.114 2.114 0 0 1-.455-.533 1.553 1.553 0 0 1-1.302.581 1.118 1.118 0 0 1-1.125-.761 1.14 1.14 0 0 1-.055-.481c-.008-.277.068-.55.218-.783s.368-.413.623-.517a5.39 5.39 0 0 1 1.488-.272 1.443 1.443 0 0 0-.095-.682.568.568 0 0 0-.445-.208.606.606 0 0 0-.635.469c0 .091-.079.16-.148.154l-.757-.059c-.019-.003-.037-.01-.053-.021s-.03-.024-.041-.04a.146.146 0 0 1-.022-.11c.175-.932 1.017-1.215 1.768-1.215.431-.016.854.124 1.191.394.381.362.344.847.344 1.369v1.241c.003.275.111.539.302.735a.15.15 0 0 1 0 .208l-.609.533-.005-.005zm-.794-1.94c.028.291-.023.584-.148.847a.645.645 0 0 1-.53.362c-.307 0-.482-.234-.482-.581 0-.677.604-.799 1.175-.799v.17h-.016zm-9.562 1.94c-.028.017-.06.027-.093.027s-.065-.009-.093-.027a2.114 2.114 0 0 1-.455-.533 1.578 1.578 0 0 1-1.303.581 1.125 1.125 0 0 1-1.165-1.22c-.009-.277.067-.551.217-.784s.369-.413.625-.517a5.39 5.39 0 0 1 1.488-.272 1.396 1.396 0 0 0-.101-.682.537.537 0 0 0-.44-.208.602.602 0 0 0-.635.469c0 .091-.079.16-.148.154l-.757-.08c-.019-.003-.037-.01-.053-.021s-.03-.024-.041-.04a.146.146 0 0 1-.022-.11c.175-.932 1.017-1.215 1.768-1.215.43-.017.851.123 1.186.394.386.362.349.847.349 1.369v1.241c-.002.27.094.532.27.735.014.013.025.03.033.047s.011.037.011.056a.138.138 0 0 1-.044.103l-.609.533.011-.005zm-.795-1.94c.028.291-.023.584-.148.847a.659.659 0 0 1-.529.362c-.302 0-.477-.234-.477-.581 0-.677.604-.799 1.175-.799v.17h-.021zm3.103-.356c0-.474 0-1.124.53-1.124s.482.666.482 1.124v2.163a.144.144 0 0 0 .138.144h.789a.14.14 0 0 0 .106-.04.145.145 0 0 0 .047-.104v-2.163a2.548 2.548 0 0 1 .074-.783.526.526 0 0 1 .471-.336.411.411 0 0 1 .466.352c.019.255.019.512 0 .767v2.163a.148.148 0 0 0 .143.144h.789a.14.14 0 0 0 .106-.04.145.145 0 0 0 .047-.104v-2.579a2.148 2.148 0 0 0-.201-1.279 1.12 1.12 0 0 0-.911-.448 1.123 1.123 0 0 0-1.096.757 1.064 1.064 0 0 0-1.022-.756c-.235-.01-.467.059-.658.196s-.333.334-.401.561v-.533c-.001-.039-.018-.075-.045-.102s-.065-.042-.103-.042h-.683a.137.137 0 0 0-.104.04c-.014.013-.025.03-.032.047s-.011.037-.011.056v4.065a.142.142 0 0 0 .042.107.143.143 0 0 0 .107.042h.81c.019 0 .038-.004.056-.011s.034-.019.047-.033a.146.146 0 0 0 .04-.106v-2.131l-.021-.016zm17.934 2.157a.142.142 0 0 1-.042.107.143.143 0 0 1-.107.042h-.789a.15.15 0 0 1-.148-.149V24.53c.001-.039.018-.075.045-.102s.065-.042.103-.042h.731c.034-.002.067.008.095.028s.046.05.054.083v.623c.055-.239.19-.452.383-.603s.432-.229.676-.223a1.052 1.052 0 0 1 .921.485c.174.398.245.835.206 1.268v2.568a.142.142 0 0 1-.148.127h-.763c-.034-.001-.067-.015-.093-.038s-.041-.055-.045-.09v-2.467c0-.826-.318-.847-.498-.847a.528.528 0 0 0-.456.32 1.845 1.845 0 0 0-.127.778v2.195zM2.61 28.734l-.064-.416a2.054 2.054 0 0 1-.63.378 1.864 1.864 0 0 1-.683.139 1.223 1.223 0 0 1-.9-.325 1.122 1.122 0 0 1-.339-.864 1.155 1.155 0 0 1 .413-.933 1.681 1.681 0 0 1 1.107-.346 4.13 4.13 0 0 1 1.001.139v-.533a.78.78 0 0 0-.196-.607.975.975 0 0 0-.662-.176 4.326 4.326 0 0 0-1.393.25v-.554c.22-.112.456-.191.699-.234.273-.058.552-.086.831-.085.394-.033.788.079 1.107.314a1.21 1.21 0 0 1 .36.959v2.893H2.61zm-1.191-.496a1.86 1.86 0 0 0 1.096-.41v-.81a3.464 3.464 0 0 0-.842-.107c-.593 0-.895.234-.895.693a.632.632 0 0 0 .169.469c.065.058.14.102.222.131s.168.04.255.034h-.005zm5.735.496v-2.707a.93.93 0 0 0-.175-.623.655.655 0 0 0-.53-.197 2.168 2.168 0 0 0-1.228.405v3.122h-.789v-4.049h.657l.079.448a2.601 2.601 0 0 1 1.588-.565 1.16 1.16 0 0 1 .879.309 1.21 1.21 0 0 1 .302.905v2.973l-.784-.021zm33.479-.155a2.264 2.264 0 0 1-1.059.24 1.858 1.858 0 0 1-1.429-.533 2.673 2.673 0 0 1 0-3.128 1.888 1.888 0 0 1 1.445-.533c.346-.002.688.075 1.001.224v.565a2.928 2.928 0 0 0-.879-.165 1.196 1.196 0 0 0-.959.341c-.22.309-.323.687-.291 1.066v.101c-.03.379.075.757.297 1.066a1.182 1.182 0 0 0 .937.341c.319-.006.635-.06.937-.16v.575zm2.468.272a1.805 1.805 0 0 1-1.414-.564 2.674 2.674 0 0 1 0-3.154 2.045 2.045 0 0 1 2.822 0 2.674 2.674 0 0 1 0 3.154 1.79 1.79 0 0 1-1.408.564zm0-.639c.741 0 1.117-.501 1.117-1.508s-.376-1.497-1.117-1.497-1.117.495-1.117 1.497c0 1.002.371 1.508 1.117 1.508zm8.022.522v-2.749a.948.948 0 0 0-.148-.586.58.58 0 0 0-.477-.192 2.215 2.215 0 0 0-1.165.357.842.842 0 0 1 0 .123v3.048h-.784v-2.749a.977.977 0 0 0-.148-.586.58.58 0 0 0-.477-.192 2.139 2.139 0 0 0-1.16.352v3.197h-.784v-4.049h.657l.079.41a2.634 2.634 0 0 1 1.483-.533.99.99 0 0 1 1.006.548 2.638 2.638 0 0 1 1.589-.565 1.096 1.096 0 0 1 .842.309c.205.254.302.58.27.906v2.973l-.784-.021zm1.943 1.641v-5.69h.657l.074.416a1.965 1.965 0 0 1 1.34-.533 1.45 1.45 0 0 1 1.212.533c.317.444.474.983.445 1.529a2.454 2.454 0 0 1-.471 1.598 1.513 1.513 0 0 1-1.244.592 1.752 1.752 0 0 1-1.228-.469v2.025h-.784zm1.848-5.168a1.762 1.762 0 0 0-1.059.368v2.222c.301.242.674.376 1.059.384.731 0 1.091-.495 1.091-1.481a1.885 1.885 0 0 0-.265-1.124.921.921 0 0 0-.826-.367zm5.21 3.527-.064-.416a2.054 2.054 0 0 1-.63.378 1.89 1.89 0 0 1-.688.139 1.234 1.234 0 0 1-.9-.325 1.146 1.146 0 0 1-.333-.863 1.15 1.15 0 0 1 .407-.933 1.682 1.682 0 0 1 1.112-.346 4.13 4.13 0 0 1 1.001.139v-.533a.79.79 0 0 0-.196-.607.975.975 0 0 0-.662-.176 4.33 4.33 0 0 0-1.398.25v-.554c.22-.112.456-.191.699-.234a4 4 0 0 1 .831-.085c.396-.032.79.08 1.112.314a1.206 1.206 0 0 1 .355.959v2.893h-.646zm-1.191-.496a1.86 1.86 0 0 0 1.096-.41v-.81a3.464 3.464 0 0 0-.842-.107c-.598 0-.895.234-.895.693a.619.619 0 0 0 .164.469.661.661 0 0 0 .477.165zm5.724.496v-2.707a.963.963 0 0 0-.169-.623.655.655 0 0 0-.53-.197 2.168 2.168 0 0 0-1.228.405v3.122h-.784v-4.049h.657l.079.448a2.595 2.595 0 0 1 1.588-.565 1.19 1.19 0 0 1 .884.309c.211.244.318.562.297.884v2.973h-.794zm5.2-4.049-1.832 4.758a1.874 1.874 0 0 1-.498.789 1.11 1.11 0 0 1-.736.24 1.695 1.695 0 0 1-.614-.112v-.565c.147.037.298.055.45.053a.68.68 0 0 0 .466-.149c.143-.15.247-.333.302-.533l.154-.405-1.621-4.087h.842l1.159 3.314 1.117-3.314h.81v.011zM15.737 8.322H2.283v-.075c.048-.476.158-.944.328-1.391a7.45 7.45 0 0 1 3.214-3.985 6.327 6.327 0 0 1 3.346-.826 6.73 6.73 0 0 1 2.568.495c.775.31 1.485.766 2.091 1.343a6.392 6.392 0 0 1 1.393 1.961 5.64 5.64 0 0 1 .53 2.398l-.016.08zM9.293 0a9.18 9.18 0 0 0-3.738.741 9.12 9.12 0 0 0-2.944 2.073A9.374 9.374 0 0 0 .678 5.91 10.885 10.885 0 0 0 0 9.799a11.448 11.448 0 0 0 .667 3.996 9.076 9.076 0 0 0 1.906 3.117 8.638 8.638 0 0 0 2.976 2.041c1.227.5 2.541.748 3.865.73a11.119 11.119 0 0 0 4.575-.932 8.195 8.195 0 0 0 3.447-3.016l-1.668-1.412a6.627 6.627 0 0 1-2.647 2.403 7.91 7.91 0 0 1-3.643.906 6.85 6.85 0 0 1-3.548-.826 7.213 7.213 0 0 1-2.192-1.982 7.094 7.094 0 0 1-1.128-2.36 8.34 8.34 0 0 1-.307-1.998v-.075h15.715V8.734a9.451 9.451 0 0 0-.582-3.197 8.526 8.526 0 0 0-1.668-2.813A8.325 8.325 0 0 0 13.057.742a8.977 8.977 0 0 0-3.765-.746v.005zm27.205 8.322H23.049v-.075c.048-.476.158-.944.328-1.391a7.529 7.529 0 0 1 1.107-2.083 7.357 7.357 0 0 1 2.118-1.897 6.285 6.285 0 0 1 3.346-.826 6.705 6.705 0 0 1 2.563.495 6.514 6.514 0 0 1 2.118 1.343 6.344 6.344 0 0 1 1.34 1.961c.348.751.529 1.569.529 2.398v.075zM30.059 0a9.216 9.216 0 0 0-3.744.741 9.115 9.115 0 0 0-2.933 2.067 9.29 9.29 0 0 0-1.933 3.096 10.76 10.76 0 0 0-.683 3.895 11.564 11.564 0 0 0 .662 3.996 9.17 9.17 0 0 0 1.911 3.117 8.647 8.647 0 0 0 2.976 2.041c1.227.5 2.541.748 3.865.73a11.119 11.119 0 0 0 4.575-.932 8.167 8.167 0 0 0 3.436-3.016l-1.668-1.412a6.568 6.568 0 0 1-2.674 2.403 7.91 7.91 0 0 1-3.643.906 6.85 6.85 0 0 1-3.548-.826 7.213 7.213 0 0 1-2.192-1.982 7 7 0 0 1-1.112-2.36 8.34 8.34 0 0 1-.307-1.998v-.075h15.737V8.734a9.597 9.597 0 0 0-.561-3.197 8.526 8.526 0 0 0-1.668-2.813A8.384 8.384 0 0 0 33.849.742a9.027 9.027 0 0 0-3.765-.746l-.026.005zm29.44 17.63a7.639 7.639 0 0 1-3.113-.618 7.268 7.268 0 0 1-2.377-1.673 7.122 7.122 0 0 1-1.493-2.472 9.171 9.171 0 0 1 0-6.053 7.227 7.227 0 0 1 1.493-2.478 7.275 7.275 0 0 1 2.377-1.668 8.152 8.152 0 0 1 6.227 0c.897.382 1.705.948 2.372 1.662s1.18 1.559 1.504 2.483a9.184 9.184 0 0 1 0 6.053 7.18 7.18 0 0 1-1.498 2.472 7.224 7.224 0 0 1-2.377 1.673 7.625 7.625 0 0 1-3.113.618zm0-17.63a10.501 10.501 0 0 0-3.939.741 8.887 8.887 0 0 0-3.098 2.041 9.459 9.459 0 0 0-2.012 3.117 10.54 10.54 0 0 0-.715 3.943 10.554 10.554 0 0 0 .725 3.953 9.459 9.459 0 0 0 2.012 3.117 9.046 9.046 0 0 0 3.087 2.041 10.51 10.51 0 0 0 3.945.73 10.366 10.366 0 0 0 3.929-.73c1.161-.459 2.216-1.154 3.098-2.042s1.575-1.948 2.032-3.116a11.138 11.138 0 0 0 0-7.907 9.366 9.366 0 0 0-2.033-3.117 9.198 9.198 0 0 0-3.103-2.03 10.366 10.366 0 0 0-3.929-.73V0zM41.513 19.191h2.282V8.983a9.113 9.113 0 0 1 .365-2.616 6.055 6.055 0 0 1 1.133-2.131 5.166 5.166 0 0 1 1.933-1.428 6.745 6.745 0 0 1 2.695-.533V.144c-2.648.053-4.739.874-6.184 2.43-2.377 2.552-2.224 6.26-2.224 6.298v10.32z"/>
    </symbol>
    <symbol id="amazon-logo" viewBox="0 0 105 32">
      <path fill="#f90" d="M64.653 24.561c-6.055 4.468-14.833 6.845-22.392 6.845-10.595 0-20.134-3.916-27.353-10.434-.567-.513-.061-1.211.62-.815 7.788 4.533 17.421 7.262 27.37 7.262 6.711 0 14.087-1.393 20.876-4.271 1.024-.435 1.883.674.88 1.415z" style="fill:var(--color1, #f90)"/>
      <path fill="#f90" d="M67.172 21.684c-.775-.991-5.119-.469-7.071-.236-.59.071-.683-.445-.15-.819 3.466-2.435 9.146-1.731 9.806-.917.664.823-.174 6.516-3.423 9.233-.5.417-.976.195-.753-.356.73-1.827 2.366-5.912 1.591-6.904z" style="fill:var(--color1, #f90)"/>
      <path fill="#221f1f" d="M60.238 3.431V1.065a.583.583 0 0 1 .6-.599L71.44.465c.338 0 .611.247.611.597v2.029c-.004.341-.29.785-.799 1.49l-5.491 7.841c2.038-.047 4.195.259 6.047 1.3.417.233.529.581.562.922v2.525c0 .346-.38.751-.781.541-3.263-1.71-7.593-1.897-11.201.02-.369.197-.754-.201-.754-.548v-2.399c0-.385.006-1.042.394-1.626l6.363-9.128-5.541-.001c-.338 0-.611-.242-.612-.595zM81.179.161c4.787 0 7.375 4.11 7.375 9.336 0 5.05-2.858 9.057-7.375 9.057-4.696 0-7.257-4.111-7.257-9.232 0-5.155 2.59-9.161 7.257-9.161zm.029 3.379c-2.379 0-2.529 3.239-2.529 5.26 0 2.02-.029 6.338 2.499 6.338 2.499 0 2.619-3.483 2.619-5.607 0-1.394-.06-3.066-.482-4.39-.361-1.149-1.084-1.601-2.108-1.601zM51.787 10.299c0 1.257.031 2.305-.603 3.422-.513.907-1.328 1.467-2.232 1.467-1.238 0-1.961-.943-1.961-2.339 0-2.748 2.465-3.247 4.797-3.247v.698zm3.253 7.865c-.212.191-.603.197-.762.074-1.101-.852-1.849-2.148-1.849-2.148-1.771 1.804-3.025 2.346-5.317 2.346-2.716 0-4.828-1.678-4.828-5.028 0-2.618 1.418-4.4 3.441-5.271 1.749-.77 4.194-.908 6.064-1.118 0 0 .157-2.021-.392-2.758-.425-.571-1.146-.838-1.81-.838-1.196-.005-2.352.646-2.582 1.898-.065.357-.329.659-.608.628l-3.088-.336a.568.568 0 0 1-.482-.674C43.546 1.147 46.97.001 50.041.001c1.568 0 3.62.418 4.858 1.607 1.568 1.467 1.418 3.42 1.418 5.551v5.024c0 1.512.627 2.175 1.217 2.989.205.295.252.642-.01.857a283.4 283.4 0 0 0-2.482 2.136zM9.504 10.299c0 1.257.031 2.305-.603 3.422-.513.907-1.328 1.467-2.232 1.467-1.238 0-1.961-.943-1.961-2.339 0-2.748 2.465-3.247 4.797-3.247v.698zm3.253 7.865c-.214.191-.603.197-.762.074-1.103-.852-1.849-2.148-1.849-2.148-1.771 1.804-3.025 2.346-5.317 2.346C2.113 18.436 0 16.758 0 13.408c0-2.618 1.418-4.4 3.439-5.271 1.75-.77 4.195-.908 6.065-1.118 0 0 .156-2.021-.392-2.758-.425-.571-1.146-.838-1.81-.838-1.197-.005-2.353.646-2.582 1.898-.066.357-.329.659-.608.628l-3.088-.336a.567.567 0 0 1-.482-.674C1.261 1.147 4.685.001 7.755.001c1.568 0 3.62.418 4.858 1.607 1.568 1.467 1.418 3.42 1.418 5.551v5.024c0 1.512.627 2.175 1.216 2.989.206.295.253.642-.01.857a294.99 294.99 0 0 0-2.481 2.136zM22.189 8.835c0-1.917-.09-4.564 2.227-4.564 2.288 0 1.987 2.717 1.987 4.564l.004 8.776c0 .317.256.575.579.594h3.222a.608.608 0 0 0 .622-.595V8.836c0-.941-.029-2.334.301-3.17s1.144-1.36 1.927-1.36c.932 0 1.656.314 1.897 1.428.15.663.09 2.404.09 3.101l.001 8.776c0 .317.254.575.579.594h3.221a.607.607 0 0 0 .622-.595l.004-10.446c0-1.778.21-3.798-.814-5.191C37.755.719 36.281.162 34.925.162c-1.897 0-3.672.976-4.456 3.066-.903-2.09-2.167-3.066-4.185-3.066-1.987 0-3.462.976-4.245 3.066h-.061V1.114a.603.603 0 0 0-.603-.603h-3.01a.602.602 0 0 0-.602.603v16.49c0 .332.268.602.602.602h3.221c.333 0 .603-.27.603-.602V8.836zM95.392 17.602c0 .333-.27.603-.603.603h-3.221a.603.603 0 0 1-.602-.603V1.112c0-.332.27-.603.602-.603h2.978c.35 0 .603.281.603.472v2.524h.062c.903-2.264 2.167-3.344 4.395-3.344 1.447 0 2.861.523 3.764 1.951.845 1.323.845 3.553.845 5.155v10.416a.614.614 0 0 1-.62.521h-3.234a.606.606 0 0 1-.573-.521l.005-10.003c0-3.347-1.282-3.445-2.021-3.445-.861 0-1.555.673-1.857 1.3-.45 1.011-.523 2.044-.523 3.16v8.906z" style="fill:var(--color2, #221f1f)"/>
    </symbol>
<symbol id="bulb" viewBox="0 0 32 32">
<path fill="none" stroke="#fff" style="stroke: var(--color1, #fff)" stroke-linejoin="miter" stroke-linecap="butt" stroke-miterlimit="4" stroke-width="0.4103" d="M21.739 0.24h-11.067c-5.676 0-10.277 4.546-10.277 10.153v10.934c0 5.607 4.601 10.153 10.277 10.153h11.067c5.675 0 10.276-4.546 10.276-10.153v-10.933c0-5.607-4.601-10.153-10.277-10.153z"></path>
<path fill="none" stroke="#fff" style="stroke: var(--color1, #fff)" stroke-linejoin="round" stroke-linecap="round" stroke-miterlimit="4" stroke-width="0.6462" d="M12.756 21.119h6.576M13.695 22.759h4.697M17.452 24.399h-2.818M19.304 19.479c0-0.882 0.221-1.751 0.644-2.53l1.39-2.569c0.008-0.015 0.017-0.029 0.025-0.044l0.008-0.017h-0.003c0.279-0.572 0.442-1.244 0.443-1.954v-0c0-2.814-2.582-5.095-5.767-5.095s-5.767 2.281-5.767 5.095c0 0.693 0.159 1.352 0.443 1.954h-0.002l0.009 0.016c0.007 0.016 0.016 0.030 0.025 0.046l1.39 2.568c0.404 0.731 0.643 1.603 0.643 2.531v0"></path>
</symbol>
    <symbol id="bulb" viewBox="0 0 32 32">
      <path d="M21.744 31.672H10.667C4.882 31.672.205 27.036.205 21.334V10.38C.205 4.677 4.882.042 10.667.042h11.077c5.785 0 10.462 4.636 10.462 10.338v10.954c0 5.703-4.677 10.338-10.462 10.338zM10.667.451C5.129.451.616 4.923.616 10.379v10.954c0 5.497 4.513 9.928 10.051 9.928h11.077c5.538 0 10.051-4.472 10.051-9.928V10.379c0-5.456-4.513-9.928-10.051-9.928H10.667z"/>
      <path d="M19.323 21.456h-6.564c-.164 0-.328-.164-.328-.328s.164-.328.328-.328h6.564c.164 0 .328.164.328.328s-.123.328-.328.328zM18.38 23.097h-4.677c-.164 0-.328-.164-.328-.328s.164-.328.328-.328h4.677c.164 0 .328.164.328.328s-.123.328-.328.328zM17.436 24.738h-2.831c-.164 0-.328-.164-.328-.328s.164-.328.328-.328h2.831c.164 0 .328.164.328.328s-.123.328-.328.328zM19.323 19.815a.353.353 0 0 1-.328-.328c0-.944.246-1.846.697-2.667l1.395-2.585v-.041c.287-.574.41-1.19.41-1.805 0-2.626-2.462-4.759-5.456-4.759s-5.456 2.133-5.456 4.759c0 .615.123 1.231.41 1.805v.041l1.395 2.585c.451.82.697 1.764.697 2.667 0 .164-.164.328-.328.328s-.328-.164-.328-.328c0-.82-.205-1.641-.615-2.38l-1.395-2.585c0-.041-.041-.041-.041-.041v-.041c-.328-.656-.451-1.354-.451-2.092 0-2.995 2.749-5.415 6.072-5.415 3.364 0 6.072 2.42 6.072 5.415 0 .697-.164 1.395-.451 2.051 0 0 0 .041-.041.041 0 .041 0 .041-.041.041l-1.395 2.585a4.9 4.9 0 0 0-.615 2.38c.082.205-.041.369-.205.369z"/>
    </symbol>
    <symbol id="info" viewBox="0 0 32 32">
      <path d="M21.468 31.676H10.531C4.82 31.676.202 27.099.202 21.468V10.653C.202 5.023 4.82.445 10.531.445h10.937c5.711 0 10.329 4.577 10.329 10.208v10.815c0 5.63-4.618 10.208-10.329 10.208zM10.532.851C5.064.851.608 5.266.608 10.654v10.815c0 5.428 4.456 9.803 9.924 9.803h10.937c5.468 0 9.924-4.415 9.924-9.803V10.654c0-5.387-4.456-9.803-9.924-9.803H10.532z"/>
      <path d="M16 24.911c-2.268 0-4.577-.851-6.319-2.592-1.701-1.661-2.633-3.889-2.633-6.238s.932-4.577 2.633-6.238c3.484-3.443 9.154-3.443 12.597 0 1.701 1.661 2.633 3.889 2.633 6.238s-.932 4.577-2.633 6.238A8.862 8.862 0 0 1 16 24.911zm0-17.012c-2.106 0-4.253.81-5.873 2.39-1.58 1.539-2.43 3.605-2.43 5.792s.851 4.253 2.43 5.792c3.24 3.2 8.506 3.2 11.706 0 1.58-1.539 2.43-3.605 2.43-5.792s-.851-4.253-2.43-5.792c-1.58-1.58-3.686-2.39-5.833-2.39z"/>
      <path d="M16 21.59c-.527 0-1.053-.081-1.539-.284s-.932-.486-1.296-.851c-.365-.365-.689-.81-.891-1.296s-.324-1.013-.284-1.539c0-.527.122-1.053.324-1.539s.486-.932.891-1.296c.77-.729 1.742-1.134 2.795-1.134s2.066.405 2.835 1.175c.77.729 1.175 1.742 1.175 2.795s-.405 2.066-1.175 2.795c-.365.365-.81.648-1.296.851-.486.243-1.013.324-1.539.324zm0-7.251c-.891 0-1.742.324-2.349.972-.324.324-.567.689-.729 1.094s-.243.851-.243 1.256.081.851.243 1.296c.162.405.405.77.729 1.094s.689.567 1.094.729c.405.162.851.243 1.296.243s.891-.081 1.296-.243c.405-.162.77-.405 1.094-.729.648-.648.972-1.458.972-2.349s-.365-1.701-.972-2.349a3.37 3.37 0 0 0-2.43-1.013z"/>
      <path d="M16 19.16a.348.348 0 0 1-.324-.324v-2.43c0-.162.162-.324.324-.324s.324.162.324.324v2.43c0 .203-.122.324-.324.324zM16.041 12.273c-.405 0-.81-.162-1.094-.446a1.565 1.565 0 0 1 0-2.188 1.565 1.565 0 0 1 2.188 0 1.565 1.565 0 0 1 0 2.188 1.468 1.468 0 0 1-1.094.446zM16 9.884c-.243 0-.486.081-.648.243s-.243.405-.243.608c0 .243.081.446.284.648.162.162.405.243.648.284.243 0 .486-.081.648-.243s.243-.405.243-.648-.081-.446-.284-.648c-.162-.162-.405-.243-.648-.243zm.891 1.741z"/>
    </symbol>
    <symbol id="wi-fi" viewBox="0 0 32 32">
      <path d="M21.468 31.919H10.531C4.779 31.919.08 27.22.08 21.468V10.531C.08 4.779 4.779.08 10.531.08h10.937c5.752 0 10.451 4.699 10.451 10.451v10.937c0 5.752-4.699 10.451-10.451 10.451zM10.532.689C5.104.689.689 5.104.689 10.532v10.937c0 5.428 4.415 9.843 9.843 9.843h10.937c5.428 0 9.843-4.415 9.843-9.843V10.532c0-5.428-4.415-9.843-9.843-9.843H10.532z"/>
      <path d="M18.552 10.532c-1.539-.932-3.605-.932-5.144 0l-.324-.527c1.742-1.013 4.01-1.013 5.792 0l-.324.527zM20.537 8.668c-1.337-.972-2.916-1.499-4.577-1.499s-3.2.527-4.537 1.458l-.365-.486c1.418-1.053 3.119-1.58 4.901-1.58s3.484.567 4.942 1.62l-.365.486zM18.025 25.073h-4.051a4.15 4.15 0 0 1-4.132-4.132V16.89a4.15 4.15 0 0 1 4.132-4.132h4.091a4.15 4.15 0 0 1 4.132 4.132v4.051c-.041 2.268-1.863 4.132-4.172 4.132zm-4.05-11.746a3.527 3.527 0 0 0-3.524 3.524v4.051a3.527 3.527 0 0 0 3.524 3.524h4.091a3.527 3.527 0 0 0 3.524-3.524v-4.051a3.527 3.527 0 0 0-3.524-3.524h-4.091z"/>
      <path d="M16 20.901c-1.094 0-2.025-.891-2.025-2.025s.891-2.025 2.025-2.025 2.025.891 2.025 2.025-.932 2.025-2.025 2.025zm0-3.402c-.77 0-1.418.648-1.418 1.418s.648 1.418 1.418 1.418 1.418-.648 1.418-1.418-.648-1.418-1.418-1.418z"/>
    </symbol>
    <symbol id="setup" viewBox="0 0 32 32">
      <path fill="#2468ff" d="M15.311 27.139c-.04 0-.122 0-.162-.041-2.997-1.418-7.008-6.319-7.17-6.522-.081-.081-.081-.203-.081-.284 0-.122.081-.203.162-.284.527-.446 1.215-.648 1.863-.648.689 0 1.337.284 1.863.729l1.661 1.458V9.193c0-.405.162-.77.446-1.094a1.698 1.698 0 0 1 1.053-.486c.405 0 .81.122 1.094.405s.486.648.527 1.053l.446 6.197h3.281a3.786 3.786 0 0 1 3.767 3.767c0 .243-.162.405-.405.405s-.405-.162-.405-.405a2.974 2.974 0 0 0-2.957-2.957h-3.686c-.203 0-.405-.162-.405-.365l-.527-6.603c0-.203-.122-.365-.243-.486s-.324-.203-.527-.203-.365.081-.527.243a.77.77 0 0 0-.203.527v13.246c0 .162-.081.284-.243.365s-.324.041-.446-.081l-2.349-2.066c-.365-.324-.851-.486-1.337-.527-.365 0-.689.081-1.013.243.972 1.134 4.213 4.82 6.603 5.954.203.081.284.324.203.527.04.203-.122.284-.284.284z" style="fill:var(--color1, #2468ff)"/>
      <path fill="#2468ff" d="M18.835 11.787c-.243 0-.405-.162-.405-.405V7.777c0-.243-.041-.486-.122-.689s-.243-.405-.405-.567c-.162-.162-.365-.284-.567-.405s-.446-.122-.689-.122h-3.322c-.486 0-.932.203-1.256.527s-.527.81-.527 1.296v3.605c0 .243-.162.405-.405.405s-.405-.162-.405-.405V7.817c0-.689.284-1.337.77-1.863a2.6 2.6 0 0 1 1.863-.77h3.322c.365 0 .689.081 1.013.203s.608.324.851.567c.243.243.446.527.567.851s.203.648.203 1.013v3.605c-.081.162-.243.365-.486.365z" style="fill:var(--color1, #2468ff)"/>
      <path fill="#2468ff" d="M21.468 32H10.531A10.511 10.511 0 0 1-.001 21.468V10.531A10.511 10.511 0 0 1 10.531-.001h10.937C27.301-.001 32 4.738 32 10.531v10.937A10.511 10.511 0 0 1 21.468 32zM10.532.81C5.185.81.81 5.185.81 10.532v10.937c0 5.387 4.375 9.722 9.722 9.722h10.937c5.387 0 9.722-4.375 9.722-9.722V10.532c0-5.347-4.375-9.722-9.722-9.722H10.532z" style="fill:var(--color1, #2468ff)"/>
    </symbol>
    <symbol id="protect" viewBox="0 0 32 32">
      <path fill="#2468ff" d="M14.825 18.187a.368.368 0 0 1-.284-.122l-2.309-2.309c-.162-.162-.162-.405 0-.567s.405-.162.567 0l2.025 2.025 4.537-4.537c.162-.162.405-.162.567 0s.162.405 0 .567l-4.82 4.82a.44.44 0 0 1-.284.122z" style="fill:var(--color1, #2468ff)"/>
      <path fill="#2468ff" d="M16.041 27.261c-.243 0-.486-.081-.689-.162-2.066-1.175-8.871-5.873-9.154-18.106 0-.608.365-1.175.972-1.377 2.714-.932 5.792-1.418 8.911-1.418 3.119 0 6.197.486 8.911 1.418.567.203.972.77.932 1.377-.284 12.233-7.089 16.932-9.195 18.066a1.364 1.364 0 0 1-.689.203zm0-20.253c-3.038 0-6.035.486-8.628 1.377-.243.081-.405.324-.405.608.284 11.787 6.765 16.284 8.749 17.377.203.122.405.081.608 0 1.985-1.094 8.466-5.59 8.749-17.377 0-.284-.162-.527-.405-.608-2.633-.891-5.63-1.377-8.668-1.377z" style="fill:var(--color1, #2468ff)"/>
      <path fill="#2468ff" d="M21.468 32H10.531A10.511 10.511 0 0 1-.001 21.468V10.531A10.511 10.511 0 0 1 10.531-.001h10.937C27.301-.001 32 4.738 32 10.531v10.937A10.511 10.511 0 0 1 21.468 32zM10.532.81C5.185.81.81 5.185.81 10.532v10.937c0 5.387 4.375 9.722 9.722 9.722h10.937c5.387 0 9.722-4.375 9.722-9.722V10.532c0-5.347-4.375-9.722-9.722-9.722H10.532z" style="fill:var(--color1, #2468ff)"/>
    </symbol>
    <symbol id="update" viewBox="0 0 32 32">
      <path fill="#2468ff" d="M21.468 32H10.531A10.511 10.511 0 0 1-.001 21.468V10.531A10.511 10.511 0 0 1 10.531-.001h10.937C27.301-.001 32 4.738 32 10.531v10.937A10.511 10.511 0 0 1 21.468 32zM10.532.81C5.185.81.81 5.185.81 10.532v10.937c0 5.387 4.375 9.722 9.722 9.722h10.937c5.387 0 9.722-4.375 9.722-9.722V10.532c0-5.347-4.375-9.722-9.722-9.722H10.532z" style="fill:var(--color1, #2468ff)"/>
      <path fill="#2468ff" d="M22.927 14.866c-.243 0-.405-.162-.405-.405v-1.944c0-1.944-1.458-3.524-3.241-3.524h-6.684c-1.782 0-3.24 1.58-3.24 3.524v1.944c0 .243-.162.405-.405.405s-.405-.162-.405-.405v-1.944c0-2.39 1.823-4.334 4.051-4.334h6.684c2.228 0 4.051 1.944 4.051 4.334v1.944a.406.406 0 0 1-.405.405zM19.281 24.101h-6.684c-2.228 0-4.051-1.944-4.051-4.334v-3.605c0-.243.162-.405.405-.405s.405.162.405.405v3.605c0 1.944 1.458 3.524 3.24 3.524h6.684c1.782 0 3.241-1.58 3.241-3.524v-3.605c0-.243.162-.405.405-.405s.405.162.405.405v3.605c0 2.39-1.823 4.334-4.051 4.334z" style="fill:var(--color1, #2468ff)"/>
      <path fill="#2468ff" d="M8.992 14.866a.365.365 0 0 1-.284-.122L6.926 12.84c-.162-.162-.162-.405.04-.567.162-.162.405-.122.567.04l1.458 1.58 1.458-1.58a.433.433 0 0 1 .567-.04.433.433 0 0 1 .04.567l-1.782 1.904a.44.44 0 0 1-.284.122zM24.709 18.471a.368.368 0 0 1-.284-.122l-1.458-1.58-1.499 1.539a.434.434 0 0 1-.567.041.434.434 0 0 1-.041-.567l1.782-1.904a.441.441 0 0 1 .608 0l1.782 1.904c.162.162.122.405-.041.567a.44.44 0 0 1-.284.122z" style="fill:var(--color1, #2468ff)"/>
    </symbol> 
 
    <symbol id="logo-white" viewBox="0 0 71 32">
      <path fill="#fff" d="M26.099 30.311A9.82 9.82 0 0 1 20.559 32a10.033 10.033 0 0 1-6.764-2.573c-.144-.128 0-.298.15-.203a13.498 13.498 0 0 0 11.934.74c.257-.107.465.165.219.346z" style="fill:var(--color3, #fff)"/>
      <path fill="#fff" d="M26.724 29.603c-.192-.245-1.267-.117-1.754-.059-.144 0-.166-.107-.038-.203.861-.597 2.267-.426 2.428-.224s-.043 1.598-.845 2.275c-.123.101-.241.048-.187-.085.182-.453.583-1.46.396-1.705zm-1.716-4.497v-.586a.142.142 0 0 1 .042-.107.143.143 0 0 1 .107-.042h2.609a.142.142 0 0 1 .107.042.143.143 0 0 1 .042.107v.501c0 .085-.07.192-.198.368l-1.358 1.934a2.88 2.88 0 0 1 1.497.32c.041.022.075.054.099.094s.038.084.04.13v.623c0 .085-.096.186-.192.133a3.019 3.019 0 0 0-2.77 0c-.091.048-.187-.048-.187-.133v-.575a.694.694 0 0 1 .096-.4l1.583-2.264h-1.369a.14.14 0 0 1-.106-.04.167.167 0 0 1-.033-.047.138.138 0 0 1-.012-.056zm5.186.026c-.588 0-.626.799-.626 1.295s0 1.561.62 1.561.647-.858.647-1.38a3.656 3.656 0 0 0-.123-1.066.497.497 0 0 0-.534-.394l.016-.016zm0-.836c1.182 0 1.823 1.018 1.823 2.302s-.706 2.232-1.823 2.232-1.797-1.012-1.797-2.275.642-2.259 1.797-2.259zm-6.475 4.438c-.028.018-.06.027-.094.027s-.065-.009-.094-.027a2.133 2.133 0 0 1-.46-.533 1.573 1.573 0 0 1-1.316.581 1.14 1.14 0 0 1-.884-.347 1.126 1.126 0 0 1-.309-.895 1.352 1.352 0 0 1 .85-1.3c.486-.16.991-.252 1.503-.272a1.43 1.43 0 0 0-.096-.682.566.566 0 0 0-.449-.208.617.617 0 0 0-.641.469c0 .091-.08.16-.15.154l-.765-.059c-.019-.003-.037-.01-.054-.02s-.03-.024-.041-.04-.019-.034-.022-.053a.137.137 0 0 1 0-.057c.176-.932 1.027-1.215 1.786-1.215a1.83 1.83 0 0 1 1.203.394c.385.362.348.847.348 1.369v1.241c.002.275.112.539.305.735a.15.15 0 0 1 0 .208l-.615.533-.005-.005zm-.802-1.939c.029.291-.023.584-.15.847a.65.65 0 0 1-.535.362c-.31 0-.487-.234-.487-.581 0-.677.61-.799 1.187-.799v.171h-.016zm-9.657 1.939c-.028.018-.06.027-.094.027s-.065-.009-.094-.027a2.133 2.133 0 0 1-.46-.533 1.606 1.606 0 0 1-1.316.581 1.125 1.125 0 0 1-.864-.347 1.14 1.14 0 0 1-.312-.874 1.36 1.36 0 0 1 .851-1.301c.486-.16.991-.252 1.503-.272a1.385 1.385 0 0 0-.102-.682.543.543 0 0 0-.444-.208.613.613 0 0 0-.641.469c0 .091-.08.16-.15.154l-.765-.08c-.019-.003-.037-.01-.054-.02s-.03-.024-.041-.04c-.011-.016-.019-.034-.022-.053s-.004-.038 0-.057c.176-.932 1.027-1.215 1.786-1.215.434-.017.859.123 1.198.394.39.362.353.847.353 1.369v1.241c-.003.27.095.532.273.735.014.013.025.03.033.047a.135.135 0 0 1 0 .113.154.154 0 0 1-.033.047l-.615.533.011-.005zm-.802-1.939c.029.291-.023.584-.15.847a.65.65 0 0 1-.535.362c-.305 0-.481-.234-.481-.581 0-.677.61-.799 1.187-.799v.171h-.021zm3.134-.357c0-.474 0-1.124.535-1.124s.487.666.487 1.124v2.163a.144.144 0 0 0 .139.144h.797a.144.144 0 0 0 .108-.04.145.145 0 0 0 .047-.104v-2.163a2.519 2.519 0 0 1 .075-.783.53.53 0 0 1 .476-.336.418.418 0 0 1 .47.352c.019.255.019.512 0 .767v2.163c.001.038.017.074.044.1s.063.042.101.044h.797a.144.144 0 0 0 .108-.04.145.145 0 0 0 .047-.104v-2.579a2.126 2.126 0 0 0-.203-1.279 1.124 1.124 0 0 0-.92-.448 1.134 1.134 0 0 0-1.107.756 1.065 1.065 0 0 0-1.032-.756 1.075 1.075 0 0 0-1.07.757v-.533a.15.15 0 0 0-.15-.144h-.69a.14.14 0 0 0-.106.04.136.136 0 0 0-.044.103v4.065a.142.142 0 0 0 .042.107.143.143 0 0 0 .107.042h.818c.019 0 .039-.004.057-.011s.034-.019.047-.033a.146.146 0 0 0 .04-.106v-2.131l-.021-.016zm18.11 2.158a.142.142 0 0 1-.042.107.143.143 0 0 1-.107.042h-.797a.15.15 0 0 1-.15-.15V24.53a.15.15 0 0 1 .15-.144h.738a.146.146 0 0 1 .15.112v.623a1.066 1.066 0 0 1 1.069-.826 1.069 1.069 0 0 1 .93.485c.175.398.247.835.209 1.268v2.568c-.004.036-.022.07-.05.093s-.064.036-.1.034h-.77c-.035-.001-.068-.015-.094-.038s-.042-.055-.046-.09v-2.467c0-.826-.321-.847-.503-.847a.541.541 0 0 0-.46.32 1.815 1.815 0 0 0-.128.778v2.195zM2.636 28.734l-.064-.416a2.082 2.082 0 0 1-.636.378 1.896 1.896 0 0 1-.69.139 1.24 1.24 0 0 1-.909-.325 1.114 1.114 0 0 1-.342-.864 1.164 1.164 0 0 1 .417-.933c.32-.243.716-.366 1.118-.346.341.005.681.052 1.011.139v-.533a.796.796 0 0 0-.198-.608.993.993 0 0 0-.668-.176 4.405 4.405 0 0 0-1.406.25v-.554c.222-.112.46-.191.706-.234.276-.058.557-.086.839-.085.398-.033.795.079 1.118.314a1.21 1.21 0 0 1 .364.959v2.893h-.658zm-1.203-.496a1.894 1.894 0 0 0 1.107-.41v-.81a3.529 3.529 0 0 0-.85-.107c-.599 0-.904.234-.904.693a.632.632 0 0 0 .171.469.648.648 0 0 0 .481.165h-.005zm5.791.496v-2.707a.925.925 0 0 0-.176-.623.671.671 0 0 0-.535-.197 2.203 2.203 0 0 0-1.24.405v3.122h-.797v-4.049h.663l.08.448a2.642 2.642 0 0 1 1.604-.565 1.186 1.186 0 0 1 .888.309 1.2 1.2 0 0 1 .304.905v2.973l-.791-.021zm33.809-.155a2.305 2.305 0 0 1-1.069.24 1.895 1.895 0 0 1-1.444-.533 2.657 2.657 0 0 1 0-3.128 1.907 1.907 0 0 1 1.46-.533c.349-.002.695.075 1.011.224v.565a2.986 2.986 0 0 0-.888-.165 1.22 1.22 0 0 0-.968.341 1.596 1.596 0 0 0-.294 1.066v.101c-.031.379.075.757.299 1.066a1.197 1.197 0 0 0 .946.341 3.23 3.23 0 0 0 .946-.16v.575zm2.491.272a1.834 1.834 0 0 1-1.427-.564 2.658 2.658 0 0 1 0-3.154 2.077 2.077 0 0 1 2.85 0 2.658 2.658 0 0 1 0 3.154 1.804 1.804 0 0 1-1.422.564zm0-.639c.749 0 1.128-.501 1.128-1.508s-.38-1.497-1.128-1.497c-.749 0-1.128.495-1.128 1.497s.374 1.508 1.128 1.508zm8.101.522v-2.749a.943.943 0 0 0-.15-.586.587.587 0 0 0-.481-.192 2.25 2.25 0 0 0-1.176.357.842.842 0 0 1 0 .123v3.048h-.791v-2.749a.97.97 0 0 0-.15-.586.587.587 0 0 0-.481-.192 2.175 2.175 0 0 0-1.171.352v3.197h-.791v-4.049h.663l.08.41a2.677 2.677 0 0 1 1.497-.533 1.009 1.009 0 0 1 1.016.548 2.681 2.681 0 0 1 1.604-.565 1.113 1.113 0 0 1 .85.308c.207.254.305.58.273.906v2.973l-.791-.021zm1.962 1.641v-5.69h.663l.075.416a1.995 1.995 0 0 1 1.353-.533 1.48 1.48 0 0 1 1.224.533c.32.444.479.983.449 1.529a2.436 2.436 0 0 1-.476 1.598 1.517 1.517 0 0 1-1.257.592 1.784 1.784 0 0 1-1.241-.469v2.025h-.791zm1.867-5.168a1.789 1.789 0 0 0-1.069.368v2.222c.304.242.68.376 1.069.384.738 0 1.101-.495 1.101-1.481a1.873 1.873 0 0 0-.267-1.124.937.937 0 0 0-.834-.367zm5.261 3.527-.064-.416a2.082 2.082 0 0 1-.636.378 1.927 1.927 0 0 1-.695.139 1.26 1.26 0 0 1-.909-.325 1.13 1.13 0 0 1-.337-.863 1.163 1.163 0 0 1 .411-.933 1.71 1.71 0 0 1 1.123-.346c.341.005.681.052 1.011.139v-.533a.79.79 0 0 0-.197-.607.993.993 0 0 0-.668-.176c-.481.006-.958.09-1.412.25v-.554c.222-.112.46-.191.706-.234.276-.057.557-.086.839-.085.4-.032.798.08 1.123.314a1.214 1.214 0 0 1 .358.959v2.893h-.652zm-1.203-.496a1.891 1.891 0 0 0 1.107-.41v-.81a3.535 3.535 0 0 0-.85-.107c-.604 0-.904.234-.904.693a.619.619 0 0 0 .166.469.672.672 0 0 0 .481.165zm5.78.496v-2.707a.953.953 0 0 0-.171-.623.671.671 0 0 0-.534-.197 2.208 2.208 0 0 0-1.241.405v3.122h-.791v-4.049h.663l.08.448a2.636 2.636 0 0 1 1.604-.565 1.199 1.199 0 0 1 .893.309c.213.244.321.562.299.884v2.973h-.802zm5.251-4.049-1.85 4.758a1.866 1.866 0 0 1-.503.788 1.128 1.128 0 0 1-.743.24 1.727 1.727 0 0 1-.62-.112v-.565c.149.037.301.055.454.053.17.01.337-.043.47-.149.144-.15.249-.333.305-.533l.155-.405-1.636-4.087h.85l1.171 3.314 1.128-3.314h.818v.011zM15.891 8.322H2.304v-.075c.048-.476.16-.944.332-1.391a7.466 7.466 0 0 1 3.246-3.985 6.438 6.438 0 0 1 3.379-.826 6.852 6.852 0 0 1 2.593.495c.783.31 1.5.766 2.112 1.343a6.398 6.398 0 0 1 1.406 1.961c.354.75.537 1.569.535 2.398l-.016.08zM9.384 0a9.355 9.355 0 0 0-3.775.741 9.219 9.219 0 0 0-2.973 2.073A9.377 9.377 0 0 0 .684 5.91 10.76 10.76 0 0 0 0 9.799a11.34 11.34 0 0 0 .674 3.996 9.048 9.048 0 0 0 1.925 3.117 8.742 8.742 0 0 0 3.005 2.041c1.239.5 2.566.748 3.903.73a11.32 11.32 0 0 0 4.62-.932 8.248 8.248 0 0 0 3.481-3.016l-1.684-1.412a6.664 6.664 0 0 1-2.673 2.403 8.05 8.05 0 0 1-3.679.906 6.968 6.968 0 0 1-3.582-.826 7.269 7.269 0 0 1-2.214-1.982 7.062 7.062 0 0 1-1.139-2.36 8.294 8.294 0 0 1-.31-1.998v-.075h15.87V8.734a9.36 9.36 0 0 0-.588-3.197 8.534 8.534 0 0 0-1.684-2.813A8.4 8.4 0 0 0 13.187.742a9.142 9.142 0 0 0-3.802-.746v.005zm27.473 8.322H23.276v-.075c.048-.476.16-.944.331-1.391a7.483 7.483 0 0 1 1.118-2.083 7.398 7.398 0 0 1 2.139-1.897 6.398 6.398 0 0 1 3.379-.826 6.826 6.826 0 0 1 2.588.495c.793.306 1.52.762 2.139 1.343a6.35 6.35 0 0 1 1.353 1.961c.351.751.534 1.569.535 2.398v.075zM30.355 0a9.378 9.378 0 0 0-3.78.741 9.202 9.202 0 0 0-2.962 2.067 9.292 9.292 0 0 0-1.952 3.096 10.702 10.702 0 0 0-.69 3.895c-.016 1.361.21 2.714.668 3.996a9.141 9.141 0 0 0 1.93 3.117 8.742 8.742 0 0 0 3.005 2.041c1.239.5 2.566.748 3.903.73a11.32 11.32 0 0 0 4.62-.932 8.227 8.227 0 0 0 3.47-3.016l-1.684-1.412a6.613 6.613 0 0 1-2.7 2.403 8.05 8.05 0 0 1-3.679.906 6.974 6.974 0 0 1-3.583-.826 7.269 7.269 0 0 1-2.214-1.982 6.968 6.968 0 0 1-1.123-2.36 8.245 8.245 0 0 1-.31-1.998v-.075h15.891V8.734a9.478 9.478 0 0 0-.567-3.197 8.534 8.534 0 0 0-1.684-2.813A8.467 8.467 0 0 0 34.182.742a9.193 9.193 0 0 0-3.802-.746l-.027.005zm29.729 17.63a7.78 7.78 0 0 1-3.144-.618 7.356 7.356 0 0 1-2.401-1.673 7.13 7.13 0 0 1-1.508-2.472 9.096 9.096 0 0 1 0-6.053 7.203 7.203 0 0 1 1.508-2.478 7.341 7.341 0 0 1 2.401-1.668 8.306 8.306 0 0 1 6.288 0 7.07 7.07 0 0 1 3.914 4.145 9.096 9.096 0 0 1 0 6.053 7.157 7.157 0 0 1-1.513 2.472 7.29 7.29 0 0 1-2.401 1.673 7.764 7.764 0 0 1-3.144.618zm0-17.63a10.698 10.698 0 0 0-3.978.741 8.978 8.978 0 0 0-3.128 2.041 9.466 9.466 0 0 0-2.032 3.117 10.452 10.452 0 0 0-.722 3.943 10.444 10.444 0 0 0 .733 3.953 9.45 9.45 0 0 0 2.032 3.117 9.138 9.138 0 0 0 3.117 2.041 10.7 10.7 0 0 0 3.983.73 10.551 10.551 0 0 0 3.967-.73 9.16 9.16 0 0 0 5.181-5.158 11.032 11.032 0 0 0 0-7.907 9.359 9.359 0 0 0-2.053-3.117 9.302 9.302 0 0 0-3.133-2.03 10.555 10.555 0 0 0-3.967-.73V0zM41.92 19.191h2.305V8.982a9.014 9.014 0 0 1 .369-2.616 6.048 6.048 0 0 1 1.144-2.131 5.216 5.216 0 0 1 1.952-1.428 6.87 6.87 0 0 1 2.722-.533V.143c-2.673.053-4.786.874-6.245 2.43-2.401 2.552-2.246 6.26-2.246 6.298v10.32z" style="fill:var(--color3, #fff)"/>
    </symbol>
    <symbol id="facebook" viewBox="0 0 32 32">
      <path fill="#fff" d="M17.092 32H1.766A1.766 1.766 0 0 1 0 30.234V1.766C0 .79.791 0 1.766 0h28.468C31.209 0 32 .791 32 1.766v28.468c0 .975-.791 1.766-1.766 1.766H22.08V19.608h4.159l.623-4.829H22.08v-3.083c0-1.398.388-2.351 2.393-2.351l2.557-.001V5.025c-.442-.059-1.96-.19-3.727-.19-3.687 0-6.211 2.251-6.211 6.384v3.562h-4.17v4.829h4.17v12.392z" style="fill:var(--color3, #fff)"/>
    </symbol>
    <symbol id="instagram" viewBox="0 0 32 32">
      <path fill="#fff" d="M16 0c-4.345 0-4.89.018-6.597.096C7.7.174 6.537.444 5.519.84c-1.052.409-1.944.956-2.834 1.845S1.248 4.467.84 5.519C.444 6.537.174 7.7.096 9.403.018 11.11 0 11.654 0 16s.018 4.89.096 6.597c.078 1.703.348 2.866.744 3.884.409 1.052.956 1.944 1.845 2.834s1.782 1.437 2.834 1.846c1.018.395 2.181.666 3.884.744 1.707.078 2.251.096 6.597.096s4.89-.018 6.597-.096c1.703-.078 2.866-.348 3.884-.744 1.052-.409 1.944-.956 2.834-1.846s1.437-1.782 1.846-2.834c.395-1.018.666-2.181.744-3.884.078-1.707.096-2.252.096-6.597s-.018-4.89-.096-6.597c-.078-1.703-.348-2.866-.744-3.884-.409-1.052-.956-1.944-1.846-2.834S27.533 1.248 26.481.84C25.463.444 24.3.174 22.597.096 20.89.018 20.345 0 16 0zm0 2.883c4.272 0 4.778.016 6.465.093 1.56.071 2.407.332 2.971.551.747.29 1.28.637 1.84 1.197s.907 1.093 1.197 1.84c.219.564.48 1.411.551 2.971.077 1.687.093 2.193.093 6.465s-.016 4.778-.093 6.465c-.071 1.56-.332 2.407-.551 2.971-.29.747-.637 1.28-1.197 1.84s-1.093.907-1.84 1.197c-.564.219-1.411.48-2.971.551-1.687.077-2.193.093-6.465.093s-4.778-.016-6.465-.093c-1.56-.071-2.407-.332-2.971-.551-.747-.29-1.28-.637-1.84-1.197s-.907-1.093-1.197-1.84c-.219-.564-.48-1.411-.551-2.971-.077-1.687-.093-2.193-.093-6.465s.016-4.778.093-6.465c.071-1.56.332-2.407.551-2.971.29-.747.637-1.28 1.197-1.84s1.093-.907 1.84-1.197c.564-.219 1.411-.48 2.971-.551 1.687-.077 2.193-.093 6.465-.093zM7.784 16a8.216 8.216 0 1 1 16.432 0 8.216 8.216 0 0 1-16.432 0zM16 21.333a5.333 5.333 0 1 1 0-10.667 5.333 5.333 0 0 1 0 10.667zm8.541-11.954a1.92 1.92 0 1 0-.001-3.841 1.92 1.92 0 0 0 .001 3.841z" style="fill:var(--color3, #fff)"/>
    </symbol>
    <symbol id="linkedin" viewBox="0 0 32 32">
      <path fill="#fff" d="M3.767 8.311h-.045C1.464 8.311 0 6.8 0 4.885c0-1.952 1.507-3.431 3.81-3.431 2.301 0 3.716 1.475 3.761 3.426 0 1.915-1.46 3.431-3.804 3.431zM32 30.545h-7.072V20.318c0-2.677-1.106-4.504-3.539-4.504-1.861 0-2.895 1.233-3.377 2.422-.159.376-.156.881-.153 1.402l.001.213v10.694h-7.007s.09-18.116 0-19.762h7.007v3.101c.414-1.356 2.653-3.291 6.226-3.291 4.433 0 7.915 2.843 7.915 8.964v10.988zM7.044 10.783H.807v19.762h6.237V10.783z" style="fill:var(--color3, #fff)"/>
    </symbol>
    <symbol id="pinterest" viewBox="0 0 32 32">
      <path fill="#fff" d="M16.001 0C7.165 0 0 7.163 0 16.001c0 6.55 3.94 12.179 9.579 14.654-.045-1.116-.008-2.459.277-3.675.309-1.298 2.058-8.717 2.058-8.717s-.51-1.022-.51-2.533c0-2.371 1.375-4.141 3.086-4.141 1.454 0 2.158 1.093 2.158 2.403 0 1.462-.933 3.65-1.413 5.677-.401 1.699.85 3.082 2.525 3.082 3.031 0 5.073-3.893 5.073-8.507 0-3.505-2.361-6.13-6.657-6.13-4.852 0-7.876 3.618-7.876 7.66 0 1.396.41 2.378 1.054 3.138.297.352.337.491.229.894-.075.292-.252 1.003-.325 1.283-.107.404-.435.551-.8.401-2.237-.913-3.278-3.361-3.278-6.113 0-4.544 3.833-9.997 11.434-9.997 6.11 0 10.13 4.424 10.13 9.167 0 6.277-3.489 10.966-8.635 10.966-1.725 0-3.351-.933-3.908-1.993 0 0-.93 3.686-1.125 4.397-.339 1.232-1.003 2.467-1.611 3.426 1.439.425 2.96.657 4.535.657 8.836 0 15.999-7.163 15.999-15.999C31.999 7.163 24.836 0 16 0z" style="fill:var(--color3, #fff)"/>
    </symbol>
    <symbol id="twitter" viewBox="0 0 32 32">
      <path fill="#fff" d="M32 5.824a12.816 12.816 0 0 1-3.77 1.059 6.715 6.715 0 0 0 2.887-3.723 12.932 12.932 0 0 1-4.172 1.631 6.474 6.474 0 0 0-4.791-2.124c-3.623 0-6.563 3.014-6.563 6.732 0 .528.056 1.04.169 1.533-5.456-.281-10.293-2.958-13.533-7.036a6.858 6.858 0 0 0-.888 3.388 6.777 6.777 0 0 0 2.921 5.603 6.445 6.445 0 0 1-2.975-.84v.083c0 3.263 2.263 5.984 5.269 6.601a6.451 6.451 0 0 1-2.966.118c.836 2.674 3.259 4.621 6.133 4.673a12.96 12.96 0 0 1-8.154 2.883c-.53 0-1.054-.031-1.566-.092a18.279 18.279 0 0 0 10.064 3.022c12.077 0 18.679-10.256 18.679-19.153 0-.293-.006-.586-.017-.873a13.479 13.479 0 0 0 3.274-3.484z" style="fill:var(--color3, #fff)"/>
    </symbol>
  </defs>
</svg>
