<svg width="86" height="39" viewBox="0 0 86 39" fill="none" xmlns="http://www.w3.org/2000/svg">
<g clip-path="url(#clip0_1_412)">
<path d="M31.8077 36.9419C29.817 38.2906 27.4637 39.0081 25.0564 39.0003C22.0121 39.0165 19.0717 37.8977 16.8129 35.864C16.637 35.7081 16.8129 35.5003 16.9954 35.6172C19.1859 36.8749 21.6386 37.6107 24.1618 37.7673C26.685 37.9239 29.2103 37.4969 31.5405 36.5198C31.8533 36.3899 32.1074 36.7211 31.8077 36.9419V36.9419Z" fill="white"/>
<path d="M32.5701 36.0781C32.3355 35.7794 31.0257 35.9352 30.4327 36.0067C30.2567 36.0067 30.2306 35.8768 30.387 35.7599C31.4362 35.0326 33.1501 35.2404 33.3456 35.4872C33.5411 35.7339 33.2935 37.4352 32.316 38.2599C32.1661 38.3833 32.0227 38.3183 32.0879 38.156C32.3095 37.6041 32.7982 36.3768 32.5701 36.0781V36.0781ZM30.4783 30.5976V29.8833C30.4774 29.8592 30.4815 29.8351 30.4903 29.8126C30.4992 29.7902 30.5126 29.7698 30.5297 29.7527C30.5468 29.7356 30.5673 29.7223 30.5899 29.7134C30.6124 29.7046 30.6365 29.7006 30.6607 29.7015H33.8409C33.8651 29.7006 33.8892 29.7046 33.9118 29.7134C33.9343 29.7223 33.9548 29.7356 33.9719 29.7527C33.9891 29.7698 34.0025 29.7902 34.0113 29.8126C34.0201 29.8351 34.0242 29.8592 34.0233 29.8833V30.4937C34.0233 30.5976 33.9386 30.7274 33.7822 30.9417L32.127 33.2989C32.7594 33.2621 33.3899 33.3967 33.9516 33.6885C34.0012 33.7154 34.0428 33.7547 34.0725 33.8025C34.1022 33.8503 34.119 33.905 34.1211 33.9612V34.7209C34.1211 34.8248 34.0038 34.9482 33.8865 34.8833C33.3648 34.6145 32.786 34.4743 32.1987 34.4743C31.6114 34.4743 31.0326 34.6145 30.5109 34.8833C30.4001 34.9417 30.2828 34.8248 30.2828 34.7209V34.0196C30.2715 33.8492 30.3124 33.6794 30.4001 33.5326L32.329 30.7729H30.6607C30.6371 30.7738 30.6135 30.7699 30.5914 30.7615C30.5693 30.753 30.5491 30.7403 30.5321 30.7239C30.5151 30.7075 30.5015 30.6879 30.4923 30.6662C30.483 30.6445 30.4783 30.6212 30.4783 30.5976V30.5976ZM36.7994 30.63C36.0826 30.63 36.037 31.6041 36.037 32.208C36.037 32.8119 36.037 34.1106 36.7929 34.1106C37.5488 34.1106 37.5814 33.0651 37.5814 32.4287C37.5956 31.9909 37.5451 31.5533 37.4315 31.13C37.4016 30.9839 37.3185 30.8539 37.1982 30.7652C37.0779 30.6765 36.9289 30.6353 36.7799 30.6495L36.7994 30.63ZM36.7994 29.6106C38.2396 29.6106 39.0216 30.8508 39.0216 32.4157C39.0216 33.9807 38.1614 35.1365 36.7994 35.1365C35.4374 35.1365 34.6098 33.9028 34.6098 32.3638C34.6098 30.8248 35.3918 29.6106 36.7994 29.6106ZM28.9078 35.0196C28.8736 35.041 28.8341 35.0523 28.7937 35.0523C28.7534 35.0523 28.7139 35.041 28.6797 35.0196C28.4581 34.8356 28.2687 34.6162 28.1193 34.3703C27.9282 34.6073 27.683 34.7953 27.4041 34.9184C27.1252 35.0415 26.8207 35.0963 26.5162 35.0781C26.3167 35.0894 26.1171 35.0575 25.9312 34.9846C25.7453 34.9116 25.5775 34.7994 25.4394 34.6555C25.3013 34.5117 25.1961 34.3397 25.1311 34.1515C25.0661 33.9632 25.0428 33.7632 25.063 33.5651C25.0527 33.2272 25.1465 32.8942 25.3317 32.611C25.5169 32.3278 25.7847 32.1078 26.0991 31.9807C26.691 31.7857 27.3074 31.6742 27.9303 31.6495C27.9596 31.3671 27.9193 31.0818 27.813 30.8183C27.7466 30.738 27.663 30.6735 27.5682 30.6297C27.4735 30.5858 27.37 30.5638 27.2656 30.5651C27.0884 30.5526 26.9126 30.6031 26.7693 30.7078C26.6261 30.8125 26.5248 30.9644 26.4836 31.1365C26.4836 31.2469 26.3858 31.3313 26.3011 31.3248L25.3692 31.2534C25.346 31.2495 25.3237 31.241 25.3038 31.2284C25.2839 31.2157 25.2667 31.1992 25.2533 31.1798C25.2399 31.1604 25.2306 31.1386 25.2259 31.1155C25.2212 31.0924 25.2212 31.0687 25.2259 31.0456C25.4409 29.9093 26.4771 29.5651 27.4024 29.5651C27.9331 29.5456 28.4532 29.716 28.8687 30.0456C29.3379 30.4872 29.2923 31.0781 29.2923 31.7144V33.2274C29.2953 33.5627 29.4284 33.8838 29.6637 34.1235C29.6967 34.1575 29.7152 34.2029 29.7152 34.2502C29.7152 34.2974 29.6967 34.3429 29.6637 34.3768L28.9143 35.0261L28.9078 35.0196ZM27.9303 32.656C27.9653 33.0103 27.9022 33.3674 27.7478 33.6885C27.6871 33.8122 27.595 33.9179 27.4807 33.9954C27.3665 34.0728 27.2339 34.1192 27.0962 34.13C26.7182 34.13 26.5031 33.8443 26.5031 33.4222C26.5031 32.5976 27.246 32.4482 27.9498 32.4482V32.656H27.9303ZM16.1612 35.0196C16.127 35.041 16.0875 35.0523 16.0472 35.0523C16.0069 35.0523 15.9674 35.041 15.9332 35.0196C15.7116 34.8356 15.5222 34.6162 15.3727 34.3703C15.1793 34.6045 14.9336 34.7904 14.6553 34.9133C14.377 35.0362 14.0737 35.0926 13.7696 35.0781C13.5742 35.0861 13.3792 35.0526 13.1977 34.9799C13.0162 34.9072 12.8522 34.7969 12.7167 34.6563C12.5812 34.5158 12.4771 34.3481 12.4115 34.1645C12.3459 33.9808 12.3201 33.7854 12.336 33.5911C12.3248 33.253 12.4182 32.9196 12.6035 32.6362C12.7889 32.3528 13.0572 32.133 13.3721 32.0067C13.964 31.8117 14.5804 31.7002 15.2033 31.6755C15.2327 31.3925 15.1901 31.1066 15.0795 30.8443C15.0161 30.7622 14.934 30.6963 14.8399 30.6523C14.7458 30.6082 14.6425 30.5872 14.5386 30.5911C14.3612 30.5772 14.1846 30.6272 14.0411 30.7321C13.8976 30.837 13.7966 30.9897 13.7566 31.1625C13.7566 31.2729 13.6589 31.3573 13.5741 31.3508L12.6423 31.2534C12.619 31.2495 12.5967 31.241 12.5768 31.2284C12.5569 31.2157 12.5397 31.1992 12.5263 31.1798C12.513 31.1604 12.5036 31.1386 12.4989 31.1155C12.4942 31.0924 12.4942 31.0687 12.4989 31.0456C12.7139 29.9093 13.7501 29.5651 14.6755 29.5651C15.2042 29.5448 15.7226 29.7154 16.1352 30.0456C16.6109 30.4872 16.5653 31.0781 16.5653 31.7144V33.2274C16.5622 33.5566 16.6805 33.8755 16.8976 34.1235C16.9148 34.1399 16.9284 34.1596 16.9377 34.1813C16.9471 34.2031 16.9519 34.2265 16.9519 34.2502C16.9519 34.2738 16.9471 34.2972 16.9377 34.319C16.9284 34.3408 16.9148 34.3604 16.8976 34.3768L16.1482 35.0261L16.1612 35.0196ZM15.1837 32.656C15.2187 33.0103 15.1556 33.3674 15.0013 33.6885C14.94 33.8118 14.8478 33.9172 14.7337 33.9946C14.6195 34.0719 14.4872 34.1186 14.3496 34.13C13.9782 34.13 13.7631 33.8443 13.7631 33.4222C13.7631 32.5976 14.506 32.4482 15.2098 32.4482V32.656H15.1837ZM19.0025 32.2209C19.0025 31.643 19.0025 30.8508 19.6542 30.8508C20.3058 30.8508 20.2472 31.6625 20.2472 32.2209V34.8573C20.2471 34.9027 20.2648 34.9463 20.2964 34.979C20.328 35.0117 20.3711 35.031 20.4166 35.0326H21.3876C21.4115 35.0335 21.4354 35.0297 21.4579 35.0213C21.4804 35.013 21.501 35.0003 21.5185 34.984C21.5361 34.9677 21.5503 34.9482 21.5602 34.9264C21.5702 34.9047 21.5757 34.8812 21.5766 34.8573V32.2209C21.5569 31.9 21.5876 31.5779 21.6678 31.2664C21.7144 31.1496 21.794 31.0488 21.8969 30.9762C21.9999 30.9035 22.1217 30.8623 22.2478 30.8573C22.3808 30.8387 22.5158 30.8734 22.6232 30.9537C22.7307 31.034 22.8019 31.1534 22.8212 31.2859C22.8442 31.5971 22.8442 31.9097 22.8212 32.2209V34.8573C22.8229 34.9033 22.8419 34.947 22.8746 34.9795C22.9072 35.012 22.951 35.031 22.9972 35.0326H23.9682C23.9921 35.0335 24.016 35.0297 24.0385 35.0213C24.061 35.013 24.0816 35.0003 24.0991 34.984C24.1167 34.9677 24.1308 34.9482 24.1408 34.9264C24.1508 34.9047 24.1563 34.8812 24.1571 34.8573V31.7144C24.2388 31.1819 24.1522 30.6373 23.9095 30.156C23.7791 29.9835 23.6095 29.8441 23.4147 29.7493C23.2199 29.6546 23.0054 29.607 22.7887 29.6106C22.4948 29.6021 22.2058 29.6868 21.9634 29.8525C21.721 30.0183 21.5376 30.2564 21.4397 30.5326C21.3581 30.2642 21.1915 30.0294 20.9648 29.8631C20.7381 29.6969 20.4635 29.6083 20.182 29.6106C19.8929 29.5982 19.6078 29.6822 19.3718 29.8491C19.1358 30.0161 18.9623 30.2566 18.8787 30.5326V29.8833C18.877 29.8362 18.857 29.7916 18.823 29.7589C18.7889 29.7262 18.7435 29.7079 18.6962 29.708H17.8556C17.8319 29.7071 17.8083 29.711 17.7862 29.7194C17.7641 29.7278 17.744 29.7406 17.7269 29.757C17.7099 29.7733 17.6963 29.7929 17.6871 29.8147C17.6778 29.8364 17.6731 29.8597 17.6731 29.8833V34.8378C17.6722 34.862 17.6763 34.886 17.6851 34.9085C17.694 34.9309 17.7074 34.9514 17.7245 34.9684C17.7416 34.9855 17.7621 34.9988 17.7847 35.0077C17.8072 35.0165 17.8314 35.0206 17.8556 35.0196H18.8526C18.8763 35.0197 18.8997 35.0149 18.9215 35.0057C18.9433 34.9965 18.963 34.983 18.9794 34.966C18.9958 34.949 19.0086 34.9289 19.0171 34.9069C19.0255 34.8849 19.0294 34.8614 19.0286 34.8378V32.2404L19.0025 32.2209ZM41.0743 34.8508C41.0752 34.8749 41.0711 34.899 41.0623 34.9215C41.0535 34.9439 41.04 34.9643 41.0229 34.9814C41.0058 34.9985 40.9853 35.0118 40.9628 35.0207C40.9402 35.0295 40.9161 35.0335 40.8919 35.0326H39.9209C39.8725 35.0326 39.8261 35.0135 39.7919 34.9794C39.7576 34.9453 39.7384 34.899 39.7384 34.8508V29.8963C39.7401 29.8492 39.7601 29.8046 39.7941 29.7719C39.8281 29.7392 39.8736 29.7209 39.9209 29.7209H40.8202C40.8619 29.7184 40.9032 29.7307 40.9366 29.7557C40.97 29.7807 40.9934 29.8167 41.0026 29.8573V30.6171C41.0702 30.3253 41.2368 30.0657 41.4743 29.8823C41.7118 29.6989 42.0056 29.6029 42.306 29.6106C42.53 29.6036 42.7521 29.6543 42.9507 29.7578C43.1493 29.8613 43.3178 30.0141 43.4399 30.2015C43.6538 30.6871 43.7412 31.2187 43.694 31.7469V34.8768C43.6891 34.921 43.6675 34.9617 43.6336 34.9906C43.5998 35.0195 43.5561 35.0345 43.5115 35.0326H42.5732C42.5308 35.0313 42.4904 35.0148 42.4592 34.9862C42.4281 34.9576 42.4084 34.9187 42.4037 34.8768V31.8703C42.4037 30.8638 42.0127 30.8378 41.7912 30.8378C41.6707 30.8447 41.5545 30.8848 41.4556 30.9536C41.3566 31.0224 41.2788 31.1172 41.2307 31.2274C41.1104 31.5285 41.057 31.8519 41.0743 32.1755V34.8508V34.8508Z" fill="white"/>
<path d="M3.21269 35.0193L3.13449 34.5128C2.90553 34.7112 2.64293 34.8673 2.35901 34.9739C2.0919 35.0822 1.80673 35.1394 1.51837 35.1427C1.31655 35.1535 1.1146 35.124 0.92437 35.056C0.734138 34.988 0.559448 34.8828 0.410541 34.7466C0.26954 34.6112 0.159342 34.4472 0.0873919 34.2658C0.0154421 34.0843 -0.0165841 33.8895 -0.00652406 33.6947C-0.0147364 33.4791 0.0268223 33.2646 0.114948 33.0676C0.203074 32.8705 0.335415 32.6963 0.501774 32.5583C0.891605 32.262 1.37401 32.1125 1.86375 32.1362C2.27966 32.1424 2.69326 32.1991 3.09539 32.3051V31.6557C3.11006 31.5223 3.09615 31.3874 3.05458 31.2598C3.01302 31.1322 2.94475 31.0148 2.85428 30.9154C2.61745 30.7487 2.32825 30.6726 2.0397 30.7012C1.45547 30.7085 0.87644 30.8116 0.325824 31.0064V30.331C0.596927 30.1942 0.886768 30.098 1.18602 30.0453C1.52247 29.9751 1.86539 29.9403 2.20913 29.9414C2.69463 29.9013 3.17833 30.0374 3.57111 30.3245C3.72637 30.4751 3.84653 30.6579 3.92311 30.8598C3.99968 31.0618 4.03079 31.2781 4.01424 31.4934V35.0193H3.21269ZM1.74645 34.4154C2.23819 34.3968 2.71099 34.2216 3.09539 33.9154V32.9284C2.75666 32.843 2.40867 32.7994 2.05925 32.7986C1.32939 32.7986 0.957938 33.0843 0.957938 33.6427C0.951336 33.7471 0.966449 33.8518 1.00233 33.9501C1.03822 34.0485 1.0941 34.1383 1.16647 34.2141C1.24591 34.2848 1.33868 34.3391 1.43938 34.3736C1.54008 34.4082 1.64669 34.4224 1.75297 34.4154H1.74645ZM8.80396 35.0193V31.7206C8.82628 31.4499 8.74993 31.1801 8.58891 30.9609C8.50479 30.8754 8.40274 30.8096 8.29008 30.7681C8.17742 30.7265 8.05693 30.7103 7.93725 30.7206C7.39477 30.7288 6.86755 30.9009 6.42539 31.2141V35.0193H5.45441V30.0843H6.26248L6.36023 30.6297C6.91764 30.1913 7.60512 29.9492 8.31522 29.9414C8.51179 29.9271 8.70923 29.9531 8.89531 30.0179C9.08138 30.0827 9.25213 30.1848 9.39698 30.318C9.53119 30.4671 9.63338 30.6419 9.69726 30.8317C9.76114 31.0216 9.78536 31.2224 9.76843 31.4219V35.0453L8.80396 35.0193ZM50.0086 34.831C49.6041 35.0315 49.157 35.1317 48.7053 35.1232C48.3827 35.1443 48.0593 35.0973 47.7561 34.9854C47.4529 34.8736 47.1768 34.6992 46.9458 34.4739C46.5425 33.9197 46.3254 33.2526 46.3254 32.568C46.3254 31.8835 46.5425 31.2164 46.9458 30.6622C47.1798 30.4353 47.4592 30.2602 47.7658 30.1483C48.0723 30.0364 48.3992 29.9902 48.7249 30.0128C49.1507 30.0104 49.5717 30.1036 49.9565 30.2856V30.9739C49.6083 30.8523 49.2435 30.7844 48.8747 30.7726C48.6596 30.7522 48.4427 30.7789 48.2389 30.8506C48.0352 30.9224 47.8497 31.0376 47.6952 31.1882C47.4246 31.5648 47.2975 32.0253 47.3368 32.4869V32.6102C47.2994 33.0726 47.4288 33.5332 47.7017 33.9089C47.852 34.0578 48.0331 34.1722 48.2323 34.2439C48.4316 34.3157 48.6441 34.3432 48.8552 34.3245C49.2473 34.3176 49.6361 34.2519 50.0086 34.1297V34.831ZM53.0454 35.1622C52.7226 35.1805 52.3996 35.1284 52.0991 35.0095C51.7986 34.8906 51.5277 34.7078 51.3054 34.4739C50.8947 33.9166 50.6731 33.2432 50.6731 32.5518C50.6731 31.8604 50.8947 31.187 51.3054 30.6297C51.7749 30.1877 52.3962 29.9414 53.0421 29.9414C53.688 29.9414 54.3094 30.1877 54.7788 30.6297C55.1896 31.187 55.4111 31.8604 55.4111 32.5518C55.4111 33.2432 55.1896 33.9166 54.7788 34.4739C54.5578 34.7077 54.2881 34.8905 53.9886 35.0094C53.6892 35.1283 53.3672 35.1804 53.0454 35.1622ZM53.0454 34.383C53.9577 34.383 54.4204 33.7726 54.4204 32.5453C54.4204 31.318 53.9577 30.7206 53.0454 30.7206C52.1331 30.7206 51.6704 31.3245 51.6704 32.5453C51.6704 33.7661 52.1265 34.383 53.0454 34.383ZM62.9181 35.0193V31.6687C62.9376 31.4171 62.8735 31.1661 62.7356 30.9544C62.6629 30.8726 62.572 30.8089 62.4702 30.7683C62.3683 30.7277 62.2584 30.7114 62.1491 30.7206C61.6399 30.7299 61.1434 30.8806 60.7155 31.1557C60.7189 31.2054 60.7189 31.2553 60.7155 31.3051V35.0193H59.751V31.6687C59.7677 31.4173 59.7038 31.1672 59.5685 30.9544C59.4958 30.8726 59.4049 30.8089 59.3031 30.7683C59.2012 30.7277 59.0913 30.7114 58.982 30.7206C58.4749 30.7243 57.9796 30.873 57.5549 31.1492V35.0453H56.5904V30.1102H57.3985L57.4962 30.6102C58.0243 30.2144 58.6607 29.988 59.3209 29.9609C59.5713 29.9319 59.8245 29.9806 60.0461 30.1003C60.2676 30.22 60.4468 30.4049 60.5591 30.6297C61.1181 30.1943 61.8046 29.9526 62.514 29.9414C62.7036 29.9283 62.8938 29.9551 63.0723 30.02C63.2508 30.0849 63.4136 30.1864 63.5502 30.318C63.8028 30.6279 63.9222 31.0247 63.8825 31.4219V35.0453L62.9181 35.0193ZM65.3097 37.0193V30.0843H66.1177L66.209 30.5908C66.6566 30.1747 67.2455 29.9427 67.8577 29.9414C68.1401 29.9256 68.4223 29.9761 68.6815 30.0889C68.9407 30.2017 69.1697 30.3736 69.35 30.5908C69.7403 31.1316 69.9335 31.7892 69.8974 32.4544C69.939 33.1514 69.7338 33.8408 69.3174 34.4025C69.1378 34.635 68.9052 34.8216 68.639 34.9469C68.3727 35.0722 68.0803 35.1327 67.786 35.1232C67.2269 35.1346 66.685 34.9298 66.2741 34.5518V37.0193H65.3097ZM67.584 30.7206C67.1124 30.7258 66.6551 30.883 66.2807 31.1687V33.8765C66.6517 34.1709 67.1098 34.3352 67.584 34.344C68.4833 34.344 68.9264 33.7401 68.9264 32.5388C68.9648 32.0594 68.8508 31.58 68.6006 31.1687C68.4831 31.0143 68.3282 30.8921 68.1504 30.8137C67.9726 30.7354 67.7777 30.7033 67.584 30.7206ZM73.9963 35.0193L73.9182 34.5128C73.6892 34.7112 73.4266 34.8673 73.1427 34.9739C72.8733 35.0821 72.586 35.1393 72.2955 35.1427C72.0938 35.1528 71.892 35.1229 71.7019 35.0549C71.5118 34.987 71.337 34.8822 71.1877 34.7466C71.0489 34.6099 70.9406 34.4455 70.8698 34.2643C70.7991 34.083 70.7675 33.8889 70.7771 33.6947C70.7681 33.4796 70.8087 33.2654 70.8957 33.0684C70.9826 32.8715 71.1137 32.697 71.2789 32.5583C71.6707 32.261 72.1555 32.1115 72.6474 32.1362C73.0633 32.1424 73.4769 32.1991 73.8791 32.3051V31.6557C73.8921 31.5224 73.8774 31.3879 73.8359 31.2605C73.7944 31.1332 73.727 31.0157 73.6379 30.9154C73.4011 30.7487 73.1119 30.6726 72.8234 30.7012C72.237 30.7079 71.6557 30.811 71.103 31.0064V30.331C71.3741 30.1942 71.6639 30.098 71.9632 30.0453C72.2997 29.9754 72.6426 29.9406 72.9863 29.9414C73.4737 29.9026 73.959 30.0385 74.3548 30.3245C74.5089 30.4757 74.6278 30.6587 74.7032 30.8607C74.7787 31.0626 74.8088 31.2786 74.7914 31.4934V35.0193H73.9963ZM72.5301 34.4154C73.0219 34.3968 73.4947 34.2216 73.8791 33.9154V32.9284C73.5403 32.843 73.1923 32.7994 72.8429 32.7986C72.1065 32.7986 71.7416 33.0843 71.7416 33.6427C71.7341 33.7467 71.7482 33.8511 71.783 33.9494C71.8177 34.0477 71.8724 34.1378 71.9436 34.2141C72.1052 34.3551 72.3157 34.4273 72.5301 34.4154V34.4154ZM79.5746 35.0193V31.7206C79.5954 31.451 79.5217 31.1825 79.3661 30.9609C79.2819 30.8754 79.1799 30.8096 79.0672 30.7681C78.9546 30.7265 78.8341 30.7103 78.7144 30.7206C78.1719 30.7288 77.6447 30.9009 77.2025 31.2141V35.0193H76.2381V30.0843H77.0461L77.1439 30.6297C77.7011 30.1909 78.3887 29.9488 79.0989 29.9414C79.2965 29.927 79.4949 29.9529 79.6821 30.0177C79.8692 30.0824 80.0411 30.1847 80.1872 30.318C80.4467 30.6153 80.5779 31.0028 80.5521 31.396V35.0193H79.5746ZM85.9739 30.0843L83.7192 35.883C83.6001 36.2499 83.3893 36.5806 83.1066 36.844C82.8492 37.0458 82.528 37.1494 82.2008 37.1362C81.9425 37.138 81.6862 37.0917 81.4449 36.9999V36.3115C81.626 36.3566 81.8121 36.3785 81.9988 36.3765C82.2059 36.3885 82.4102 36.3237 82.5722 36.1947C82.7479 36.0121 82.8756 35.789 82.9437 35.5453L83.1327 35.0518L81.1386 30.0713H82.1747L83.6019 34.1102L84.9769 30.0713H85.9739V30.0843ZM19.3674 10.1427H2.80866V10.0518C2.86734 9.47152 3.00321 8.90159 3.21269 8.357C3.91312 6.32268 5.31467 4.60169 7.16829 3.49986C8.42189 2.79278 9.84713 2.44447 11.2868 2.49336C12.3697 2.48783 13.4433 2.69296 14.4474 3.09726C15.4018 3.47505 16.2754 4.03038 17.0214 4.73362C17.7396 5.4147 18.3212 6.22564 18.7353 7.12323C19.1667 8.03728 19.3892 9.03526 19.387 10.0453L19.3674 10.1427ZM11.4367 -0.00014204C9.85683 -0.0210298 8.28994 0.28637 6.83594 0.902455C5.47227 1.4971 4.24069 2.3557 3.21269 3.42843C2.17885 4.51813 1.37061 5.80012 0.834122 7.20116C0.266804 8.71693 -0.0159414 10.3237 -7.27728e-06 11.9414C-0.0205913 13.6006 0.257506 15.2501 0.821089 16.8115C1.33554 18.2237 2.13383 19.5163 3.16708 20.6102C4.19904 21.6863 5.44691 22.5337 6.82942 23.0973C8.33999 23.7061 9.95726 24.0085 11.5866 23.9869C13.5228 24.0077 15.4415 23.6205 17.2169 22.8505C18.9526 22.0516 20.424 20.7768 21.4593 19.1752L19.4065 17.4544C18.6105 18.7098 17.4833 19.723 16.1482 20.383C14.7637 21.1025 13.2263 21.481 11.6648 21.4869C10.1451 21.548 8.63695 21.2003 7.29862 20.4804C6.24194 19.869 5.32344 19.0466 4.60073 18.0648C3.96231 17.2004 3.49156 16.2248 3.21269 15.1882C2.98786 14.3948 2.86094 13.5771 2.83473 12.7531V12.6622H22.1761V10.6427C22.1664 9.31235 21.9238 7.99387 21.4593 6.74661C21.0039 5.48227 20.3068 4.31792 19.4065 3.31804C18.4702 2.29578 17.335 1.47394 16.07 0.902455C14.6088 0.272106 13.0287 -0.0379257 11.4367 -0.0066357V-0.00014204ZM44.9191 10.1427H28.3669V10.0518C28.4256 9.47152 28.5614 8.90159 28.7709 8.357C29.088 7.44454 29.5477 6.58767 30.1329 5.81804C30.8428 4.88608 31.7282 4.10088 32.7396 3.50635C33.9923 2.79704 35.4182 2.44858 36.8581 2.49986C37.9389 2.49433 39.0103 2.69948 40.0121 3.10375C40.9789 3.47627 41.8641 4.03197 42.6188 4.74012C43.3148 5.42584 43.8742 6.23665 44.2675 7.12973C44.6958 8.0448 44.9182 9.0421 44.9191 10.0518V10.1427ZM36.9949 -0.00014204C35.413 -0.0209829 33.8439 0.286397 32.3877 0.902455C31.0288 1.49606 29.8018 2.35242 28.7774 3.42194C27.7414 4.50994 26.9329 5.79239 26.3989 7.19466C25.8255 8.71123 25.5404 10.3209 25.5582 11.9414C25.5388 13.6 25.8146 15.2489 26.3728 16.8115C26.8917 18.223 27.6919 19.5152 28.7253 20.6102C29.7573 21.6863 31.0051 22.5337 32.3877 23.0973C33.8981 23.7066 35.5154 24.009 37.1448 23.9869C39.081 24.0077 40.9997 23.6205 42.7752 22.8505C44.5066 22.0505 45.9736 20.7756 47.0045 19.1752L44.9517 17.4544C44.1492 18.7163 43.0096 19.7305 41.6608 20.383C40.2763 21.1025 38.7389 21.481 37.1774 21.4869C35.6577 21.548 34.1496 21.2003 32.8112 20.4804C31.7545 19.869 30.8361 19.0466 30.1133 18.0648C29.4793 17.2004 29.015 16.2244 28.7449 15.1882C28.52 14.3948 28.3931 13.5771 28.3669 12.7531V12.6622H47.7343V10.6427C47.7297 9.31418 47.4961 7.9963 47.0436 6.74661C46.5882 5.48227 45.8911 4.31792 44.9908 3.31804C44.0552 2.29784 42.9226 1.47625 41.6608 0.902455C40.1992 0.273461 38.6193 -0.0365124 37.0275 -0.0066357L36.9949 -0.00014204ZM73.2274 21.4869C71.9115 21.504 70.6064 21.2475 69.3956 20.7336C68.2929 20.2564 67.2978 19.563 66.4696 18.6947C65.6566 17.8263 65.0311 16.8008 64.632 15.6817C63.7894 13.2945 63.7894 10.6923 64.632 8.30505C65.0326 7.18476 65.6579 6.15743 66.4696 5.28557C67.2982 4.41927 68.2933 3.72805 69.3956 3.2531C71.8507 2.24858 74.6041 2.24858 77.0592 3.2531C78.1628 3.71886 79.157 4.40862 79.9783 5.27843C80.7996 6.14824 81.43 7.17902 81.8293 8.30505C82.6719 10.6923 82.6719 13.2945 81.8293 15.6817C81.4269 16.8007 80.7994 17.826 79.9851 18.6947C79.1581 19.5644 78.1628 20.258 77.0592 20.7336C75.8486 21.2481 74.5434 21.5046 73.2274 21.4869V21.4869ZM73.2274 -0.00014204C71.5683 -0.0104704 69.9225 0.295913 68.379 0.902455C66.9473 1.45586 65.6484 2.30322 64.5668 3.38947C63.4974 4.48013 62.6558 5.77126 62.0905 7.18817C61.4899 8.71864 61.1912 10.3502 61.2107 11.9934C61.1937 13.6418 61.4968 15.2779 62.1035 16.8115C62.6688 18.2285 63.5105 19.5196 64.5798 20.6102C65.661 21.6908 66.9544 22.5375 68.379 23.0973C69.9254 23.7002 71.5734 24.0022 73.2339 23.9869C74.8882 24.0039 76.5301 23.7018 78.0692 23.0973C79.4983 22.5374 80.7964 21.6904 81.8828 20.609C82.9692 19.5276 83.8205 18.235 84.3839 16.8115C85.5742 13.7089 85.5742 10.2778 84.3839 7.17518C83.8141 5.7544 82.9631 4.46249 81.8815 3.37648C80.7899 2.30249 79.4907 1.46077 78.0627 0.902455C76.5236 0.297926 74.8817 -0.00416279 73.2274 0.012844V-0.00014204ZM51.0904 23.3895H53.8991V10.9479C53.8912 9.86892 54.0427 8.79464 54.3487 7.7596C54.6336 6.80917 55.1079 5.92576 55.7433 5.16219C56.3881 4.40414 57.2029 3.80798 58.1218 3.42194C59.1714 2.98217 60.3003 2.76118 61.4388 2.77258V0.175182C58.1805 0.240117 55.6064 1.24012 53.8274 3.13622C50.9014 6.24661 51.0904 10.7661 51.0904 10.8115V23.3895Z" fill="white"/>
</g>
<defs>
<clipPath id="clip0_1_412">
<rect width="86" height="39" fill="white"/>
</clipPath>
</defs>
</svg>
